# xmcd
# 
# Track frame offsets:
#     150
#     13135
#     26650
#     38572
#     49397
#     61072
#     73342
#     86622
#     100640
#     114822
#     128210
#     140487
#     153540
#     167315
#     179730
#     191852
# 
# Disc length: 2704
# 
# Revision: 0
# Processed by: cddbd v1.5.2PL0 Copyright (c) Steve Scherf et al.
# Submitted via: BonkEnc v1.0.8
# 
DISCID=da0a8e10
DTITLE=Celia Cruz - El Merengue
DYEAR=0
DGENRE=Salsa
TTITLE0=Muñecas del cha  cha cha
TTITLE1=El Merengue
TTITLE2=Y mi negro está cansao
TTITLE3=Oya diosa y fe
TTITLE4=contestacion de el mrinero
TTITLE5=Ni sonicito
TTITLE6=Yerbero modelrno
TTITLE7=Pa' la paloma
TTITLE8=Goza negro
TTITLE9=Oyela Gozala
TTITLE10=Sandungueate
TTITLE11=Plegaria a laroye
TTITLE12=Nuevo ritmo omelenko
TTITLE13=Juancito Trucupey
TTITLE14=Burndanga
TTITLE15=rock and roll
EXTD=
EXTT0=
EXTT1=
EXTT2=
EXTT3=
EXTT4=
EXTT5=
EXTT6=
EXTT7=
EXTT8=
EXTT9=
EXTT10=
EXTT11=
EXTT12=
EXTT13=
EXTT14=
EXTT15=
PLAYORDER=
